<?xml version="1.0" encoding="UTF-8" standalone="no" ?>
<!DOCTYPE svg PUBLIC "-//W3C//DTD SVG 1.1//EN" "http://www.w3.org/Graphics/SVG/1.1/DTD/svg11.dtd">
<svg xmlns="http://www.w3.org/2000/svg" xmlns:xlink="http://www.w3.org/1999/xlink" version="1.1" width="500" height="500" viewBox="0 0 500 500" xml:space="preserve">
<desc>Created with Fabric.js 5.3.0</desc>
<defs>
</defs>
<g transform="matrix(4.4135530157 0 0 5.2728374146 75.5512439253 249.6542083638)" id="n_jUpdDIOaD_BSPVntnYu"  >
<path style="stroke: rgb(49,168,247); stroke-width: 19; stroke-dasharray: none; stroke-linecap: butt; stroke-dashoffset: 0; stroke-linejoin: miter; stroke-miterlimit: 4; fill: rgb(255,255,255); fill-opacity: 0; fill-rule: nonzero; opacity: 1;"  transform=" translate(0, 0)" d="M 0 -38.98309 L 0 38.9831 z" stroke-linecap="round" />
</g>
<g transform="matrix(4.4135530157 0 0 4.1576603554 251.5937625615 165.9487708773)" id="9BT5WaCtDBd5F0mHn-kP5"  >
<path style="stroke: rgb(49,168,247); stroke-width: 19; stroke-dasharray: none; stroke-linecap: butt; stroke-dashoffset: 0; stroke-linejoin: miter; stroke-miterlimit: 4; fill: rgb(255,255,255); fill-opacity: 0; fill-rule: nonzero; opacity: 1;"  transform=" translate(0, 0)" d="M -39.8868 19.6934 L -39.8868 19.6934 L -39.8868 19.6934 C -39.8868 -2.059329999999999 -23.27513 -19.6934 -2.7836 -19.6934 L 0 -19.6934 L 2.7836 -19.6934 L 2.7836 -19.6934 C 23.27513 -19.6934 39.8868 -2.059329999999999 39.8868 19.6934 L 39.8868 19.6934 z" stroke-linecap="round" />
</g>
<g transform="matrix(4.4135530157 0 0 4.1576603554 231.8352000022 332.8239645323)" id="-sANcFpeO0uzcZqsphuyy"  >
<path style="stroke: rgb(49,168,247); stroke-width: 19; stroke-dasharray: none; stroke-linecap: butt; stroke-dashoffset: 0; stroke-linejoin: miter; stroke-miterlimit: 4; fill: none; fill-rule: nonzero; opacity: 1;"  transform=" translate(0, 0)" d="M -35.41001 -19.9434 L -35.41001 -19.9434 C -35.41001 2.085470000000001 -18.58746 19.9434 2.164200000000001 19.9434 L 4.476790000000001 19.9434 L 6.782970000000001 19.9434 L 6.782970000000001 19.9434 C 17.50566 19.9434 27.705530000000003 15.0258 34.761070000000004 6.45449 L 35.410000000000004 5.6661399999999995" stroke-linecap="round" />
</g>
</svg>